# 3ds Max Wavefront OBJ Exporter v0.97b - (c)2007 guruware
# File Created: 24.09.2017 10:39:02

mtllib water.mtl

#
# object Plane001
#

v  -1574.8031 0.0000 -1574.8031
v  -1574.8031 0.0000 1574.8031
v  1574.8031 0.0000 1574.8031
v  1574.8031 0.0000 -1574.8031
# 4 vertices

vn 0.0000 1.0000 -0.0000
# 1 vertex normals

vt 0.0000 1.0000 0.0000
vt 0.0000 0.0000 0.0000
vt 1.0000 0.0000 0.0000
vt 1.0000 1.0000 0.0000
# 4 texture coords

g Plane001
usemtl wire_225088199
s 1
f 1/1/1 2/2/1 3/3/1 4/4/1 
# 1 polygons

